<?xml-stylesheet type="text/css" href="css/svg.css" ?>
<svg xmlns:dc="http://purl.org/dc/elements/1.1/" xmlns:cc="http://creativecommons.org/ns#" xmlns:rdf="http://www.w3.org/1999/02/22-rdf-syntax-ns#" xmlns:svg="http://www.w3.org/2000/svg" xmlns="http://www.w3.org/2000/svg" viewBox="0 0 940 724.17334" height="724.17334"
  width="940" xml:space="preserve" id="svg2" version="1.1">
    <metadata id="metadata8">
      <rdf:RDF>
        <cc:Work rdf:about="">
          <dc:format>image/svg+xml</dc:format>
          <dc:type rdf:resource="http://purl.org/dc/dcmitype/StillImage" />
        </cc:Work>
      </rdf:RDF>
    </metadata>
    <defs id="defs6" />
    <g transform="matrix(1.3333333,0,0,-1.3333333,0,724.17333)" id="g10">
      <g transform="scale(0.1)" id="g12">
        <path id="path14" style="fill:#332927;" d="M 66.8086,935.18 H 624.688 c 108.851,0 202.031,38.761 279.566,116.28 77.504,77.5 116.266,170.7 116.266,279.56 0,109.66 -38.762,203.27 -116.266,280.79 -77.535,77.51 -170.715,116.29 -279.566,116.29 H 66.8086 Z m 0,-916.6097 H 0 V 1794.89 h 624.688 c 126.984,0 235.835,-45.37 326.57,-136.07 89.872,-90.72 134.822,-199.99 134.822,-327.8 0,-127.85 -44.95,-236.7 -134.822,-326.57 C 860.523,913.73 751.672,868.379 624.688,868.379 H 66.8086 V 18.5703"
        />
        <path id="path16" style="fill:#332927;" d="M 1924.9,1794.89 1140.66,555.422 1134.46,544.289 801.719,18.5703 h 79.16 l 296.881,470.0587 42.06,66.793 763.23,1206.068 V 18.5703 h 65.55 V 1794.89 h -123.7" />
        <path id="path18" style="fill:#332927;" d="m 3343.86,66.8086 c 118.74,0 232.54,23.9023 341.39,71.7504 V 66.8086 C 3575.57,22.2891 3461.77,0 3343.86,0 c -249.89,0 -463.07,88.6484 -639.53,265.98 -177.31,176.442 -265.95,389.641 -265.95,639.508 0,249.872 88.64,463.052 265.95,639.532 176.46,177.3 389.64,265.95 639.53,265.95 117.91,0 231.71,-22.26 341.39,-66.8 v -72.97 c -108.85,48.64 -222.65,72.97 -341.39,72.97 -231.74,0 -429.25,-82.06 -592.52,-246.16 -164.12,-164.11 -246.17,-361.63 -246.17,-592.522 0,-231.738 82.05,-429.226 246.17,-592.519 C 2914.61,148.84 3112.12,66.8086 3343.86,66.8086"
        />
        <path id="path20" style="fill:#332927;" d="M 4974.35,1794.89 V 1728.1 H 4133.21 V 942.602 h 676.62 V 877.031 H 4133.21 V 85.3711 h 841.14 V 18.5703 H 4066.4 V 1794.89 h 907.95" />
        <path id="path22" style="fill:#332927;" d="M 7050,1794.89 V 18.5703 h -65.56 V 1728.1 L 6245.96,18.5703 h -85.37 L 5422.1,1728.1 V 18.5703 h -66.78 V 1794.89 H 5465.4 L 6202.66,87.8516 6939.9,1794.89 H 7050" />
        <path id="path24"  style="fill:#959596;" d="m 4628.05,2805.98 c 206.64,218.12 314.31,461.49 365.75,759.79 67.39,390.85 -10.17,753.47 -224.19,1083.96 -251.57,388.47 -607.02,624.75 -1069.96,680.93 -301.55,36.6 -587.23,-27.22 -848.28,-183.34 -423.32,-253.17 -675.03,-626.06 -748.91,-1113.52 -51.66,-340.88 2.3,-671.96 127.14,-990.79 46.08,-117.7 108.67,-228.94 160.89,-337.24 -19.68,21.18 -47.16,47.95 -71.48,77.34 -205.66,248.46 -335.14,530.92 -366.39,853.25 -57.88,596.79 148.87,1085.08 615.77,1460.47 217.64,174.99 469.15,283.12 744.98,318.46 502.76,64.44 949.55,-64.32 1328.58,-410.74 153.82,-140.59 273.94,-304.07 363.71,-490.78 80.25,-166.94 128.62,-342.8 147.15,-527.43 30.83,-307.1 -18.82,-600.06 -157.1,-875.61 -186.08,-370.83 -610.96,-761.38 -1224.97,-804.22 -103.86,-41.13 414.81,56.97 857.31,499.47"
        />
        <path id="path26"  style="fill:#959596;" d="m 3599.89,3509.2 c -1.74,5.14 0.22,15.5 -5.21,15.43 -26.02,-0.31 -73.47,19.59 -71.15,-9.63 0.48,-5.94 -0.15,-11.92 -0.23,-17.89 8.86,11.64 17.72,23.29 26.59,34.93 -1.09,-0.01 -2.17,-0.02 -3.25,-0.03 8.86,-11.64 17.73,-23.28 26.59,-34.93 -0.08,5.99 1.94,12.38 -0.24,17.95 -5.34,13.71 -52.38,7.28 -71.14,9.63 -5.41,0.68 -3.48,-10.33 -5.21,-15.49 17.73,7.21 35.47,14.43 53.2,21.64 -143.85,67.82 -273.4,177.96 -403.97,267.44 -162.45,111.31 -329.09,230.45 -512.18,305.7 -96.4,39.62 -248.62,62.73 -240.49,-88.06 15.36,-284.8 51.01,-575.54 123.98,-851.59 59.27,-224.23 154.41,-445.89 318.27,-613.9 165.23,-169.43 391.17,-247.85 623.13,-265.51 237.51,-18.08 488.05,29.19 685.63,166.79 185.81,129.4 302.51,329.06 380.08,537.49 95.62,256.91 133.14,534.2 160.3,805.55 7.37,73.63 13.31,147.4 18.74,221.2 1.97,26.85 -2.02,54.51 -15.74,77.99 -27.54,47.14 -86.48,47.57 -133.65,39.33 -73.63,-12.85 -144.79,-51.54 -209.88,-86.42 -90.72,-48.62 -177.62,-104.44 -263.52,-161.04 -158.25,-104.26 -310.1,-218.6 -470.67,-319.28 -20.48,-12.84 -41.3,-25.35 -63.18,-35.66 -42.23,-19.91 -5.44,-82.34 36.56,-62.55 143.85,67.82 273.4,177.97 403.98,267.44 161.52,110.68 328.41,232.45 511.54,305.14 25.61,10.16 107.49,43.36 126.27,16.48 16.82,-24.07 3.58,-72.21 1.63,-97.42 -6.11,-79.16 -13.45,-158.22 -22.02,-237.15 -29.42,-271.11 -75.16,-549.09 -184.81,-800.65 -92.16,-211.41 -239.2,-390.24 -451.64,-487.32 -229.35,-104.8 -518.94,-105.46 -756.87,-31.33 -509.87,158.86 -645.71,748.13 -706.79,1213.28 -14.97,113.99 -25.62,228.54 -34.69,343.14 -2.77,35 -21,97.4 20.62,105.61 38.41,7.58 89.85,-16.95 123.84,-31.38 66.95,-28.41 130.55,-64.91 192.96,-102.03 142.78,-84.94 279.27,-180.31 415.78,-274.84 93.4,-64.68 186.98,-140.32 290.23,-188.99 21.85,-10.31 45.3,-1.87 53.21,21.64 1.73,5.17 3.47,10.33 5.21,15.5 -23.71,3.2 -47.43,6.41 -71.14,9.62 0.08,-5.98 0.16,-11.96 0.23,-17.95 0.23,-17.08 11.09,-29.36 26.59,-34.92 16.29,-5.84 25.48,-5.79 41.76,0.03 15.51,5.54 26.37,17.85 26.59,34.92 0.08,5.97 0.16,11.93 0.24,17.89 -23.72,-3.2 -47.43,-6.41 -71.14,-9.62 1.74,-5.15 3.47,-10.29 5.21,-15.44 14.87,-44.01 84.85,-25.12 69.85,19.26"
        />
        <path id="path28"  style="fill:#959596;" d="m 4311.81,4325.27 c -73.22,27.55 -150.11,-27.77 -204.72,-70.22 -94.56,-73.51 -173.28,-173.59 -248.08,-266.32 -123.4,-152.99 -236.69,-315.77 -342.03,-485.77 20.85,0 41.7,0 62.55,0 -86.61,130 -179.18,274.13 -277.07,402.67 -66.68,87.56 -136.33,175.55 -212.78,254.82 -56.71,58.81 -121.41,122.45 -197.74,154.77 -292.84,124.02 -178.36,-508.21 -157.55,-622.61 48.75,-267.89 134.85,-536.75 273.57,-772.11 115.5,-195.98 284.6,-386.44 526.77,-395.06 -12.07,12.07 -34.72,24.3 -44.72,36.37 0,-0.12 0,-0.23 0,-0.35 0,-19.18 25.01,-36.96 44.72,-36.22 3.36,0.24 6.21,0.24 9.57,-0.03 19.71,-0.74 35.71,17.04 35.71,36.22 0,0.14 0,0.27 0,0.41 -10,-12.07 -19.39,-24.15 -31.46,-36.22 387.11,13.77 597.08,454.58 706.51,768.62 66.1,189.69 111.45,387.85 133.55,587.46 13.59,122.7 30.37,273.5 -22.54,389.72 -9.3,20.42 -25.28,40.56 -45.9,50.2 -42.05,19.64 -78.71,-42.8 -36.42,-62.55 10.9,-5.09 12.2,-7.8 20.29,-24.21 8.58,-17.39 12.4,-39.66 15.87,-59.1 11.79,-66.09 8.95,-135.71 5.2,-202.38 -10.73,-190.47 -51.29,-380.03 -105.98,-562.4 -58.32,-194.45 -138.59,-386.09 -257.42,-551.71 -96.52,-134.54 -244.11,-255.06 -416.95,-261.21 -19.69,-0.7 -44.75,-15.95 -44.75,-36.22 0,-0.14 0,-0.27 0,-0.41 20,12.07 32.68,24.15 44.76,36.22 -3.36,0.26 -7.17,0.27 -10.53,0.03 12.07,-12.07 35.77,-24.15 35.77,-36.22 0,0.12 0,0.23 0,0.35 0,20.27 -11.81,35.52 -31.5,36.22 -178.22,6.34 -313.86,132.71 -412.75,270.55 -121.4,169.2 -198.3,368.31 -256.83,566.84 -54.16,183.74 -91.09,375.07 -99.57,566.7 -2.81,63.62 -2.69,129.24 10.45,191.82 7.96,37.9 15.08,66.18 48.17,65.85 68.32,-0.68 140.23,-79.24 184.72,-122.35 79.93,-77.47 150.93,-164.65 218.84,-252.66 101.44,-131.48 196.41,-268.53 285.42,-408.73 14.84,-23.37 47.72,-23.37 62.56,0 94.72,149.18 196.14,294.77 305.03,433.95 69.2,88.45 142.24,174.87 224.51,251.53 40.59,37.82 120.53,117.58 183.49,93.89 43.81,-16.48 62.55,53.56 19.26,69.85"
        />
        <path id="path30"  style="fill:#959596;"
              d="m 3542.96,4395.98 c -123.08,-2.06 -214.19,-181.51 -265.08,-270.61 -109.44,-191.58 -192.54,-399.55 -266.17,-607.08 -67.7,-190.81 -130.26,-388.51 -158.73,-589.54 -8.19,-57.83 -15.85,-119.79 -1.63,-177.35 18.85,-76.27 108.19,-132.02 167.68,-173.8 156.34,-109.82 333.33,-209.95 505.57,-291.87 0.41,-1.02 50.81,-0.49 50.72,-0.21 187.59,89.22 378.76,197.47 545.15,322.75 54.41,40.96 118.59,91 129.14,162.77 9.49,64.58 -1.25,131.32 -12.09,195.05 -35.17,206.76 -103.85,409.33 -176.9,605.32 -75.82,203.39 -162.1,406.43 -274.72,592.45 -51.85,85.64 -130.62,221.62 -242.94,232.12 -46.51,4.35 -46.09,-68.13 0,-72.44 43.36,-4.05 87.95,-63.67 113.34,-96.7 55.27,-71.94 99.68,-152.41 141.42,-232.7 106.33,-204.51 190.59,-421.17 262.51,-639.92 55.33,-168.28 117.25,-351.72 120.46,-530.68 1.28,-71.53 -40.14,-107.6 -94.29,-150.7 -94.41,-75.13 -203.62,-133.91 -309.41,-191.08 -78.3,-42.3 -198.37,-119.86 -228.12,-120.66 -29.74,-0.8 -373.65,184.06 -538.75,311.73 -55.3,42.76 -94,79.49 -94.14,150.69 -0.15,76.21 16.45,152.72 32.84,226.74 47.9,216.36 120.58,428.12 202.12,633.88 74.13,187.05 157.45,380.17 278.03,542.67 23.69,31.93 71.32,96.02 113.98,96.74 46.66,0.78 46.75,73.21 0.01,72.43"
        />
      </g>
    </g>
  </svg>